<svg id="Layer_1" enable-background="new 0 0 96 96" viewBox="0 0 96 96" xmlns="http://www.w3.org/2000/svg"><path d="m61.7256 54.1039c-1.912-1.912-1.7616-5.1213.4139-6.7271.3927-.2898.7663-.6113 1.1179-.9629l12.0726-12.0724c1.5705-1.5705 2.6641-3.5944 2.9293-5.7996.3631-3.0188-.6536-5.9246-2.7651-8.0361s-5.0172-3.1282-8.0361-2.7651c-2.2051.2652-4.229 1.3588-5.7996 2.9293l-12.0725 12.0725c-.3516.3516-.673.7253-.9629 1.1179-1.6058 2.1755-4.8151 2.3259-6.7271.4139-1.5748-1.5748-1.7801-4.0767-.4463-5.8603.5323-.7117 1.122-1.3937 1.768-2.0398l12.2366-12.2366c7.2952-7.2952 19.1207-7.2872 26.3998.0081 3.6516 3.6355 5.4734 8.4076 5.4734 13.1959.0081 4.7802-1.8218 9.5604-5.4654 13.2039l-12.2364 12.2367c-.6461.6461-1.3281 1.2358-2.0398 1.768-1.7836 1.3339-4.2854 1.1286-5.8603-.4463z" fill="#2463e7"/><g><path d="m34.2744 41.8961c1.912 1.912 1.7616 5.1213-.4139 6.7271-.3927.2898-.7663.6113-1.1179.9629l-12.0726 12.0724c-1.5705 1.5705-2.6641 3.5944-2.9293 5.7996-.3631 3.0188.6536 5.9246 2.7651 8.0361s5.0172 3.1282 8.0361 2.7651c2.2051-.2652 4.229-1.3588 5.7996-2.9293l12.0725-12.0725c.3516-.3516.673-.7253.9629-1.1179 1.6058-2.1755 4.8151-2.3259 6.7271-.4139 1.5748 1.5748 1.7801 4.0767.4463 5.8603-.5323.7117-1.122 1.3937-1.768 2.0398l-12.2367 12.2365c-7.2952 7.2952-19.1207 7.2872-26.3998-.0081-3.6516-3.6355-5.4734-8.4076-5.4734-13.1959-.0081-4.7802 1.8218-9.5604 5.4654-13.2039l12.2366-12.2366c.6461-.6461 1.3281-1.2358 2.0398-1.768 1.7835-1.3339 4.2853-1.1286 5.8602.4463z" fill="#2463e7"/></g><g><g><path d="m31.3457 33.3457c-.5117 0-1.0234-.1953-1.4141-.5859l-7.2383-7.2388c-.7812-.7808-.7812-2.0474 0-2.8281.7812-.7812 2.0469-.7812 2.8281 0l7.2383 7.2388c.7812.7808.7812 2.0474 0 2.8281-.3906.3906-.9023.5859-1.414.5859z" fill="#99b8f4"/></g><g><path d="m35.7051 28.9849c-1.0498 0-1.9307-.8179-1.9941-1.8794l-.5801-9.5928c-.0674-1.1025.7725-2.0503 1.875-2.1172 1.0879-.0708 2.0508.7729 2.1172 1.876l.5801 9.5928c.0674 1.1025-.7725 2.0503-1.875 2.1172-.0411.0024-.0821.0034-.1231.0034z" fill="#99b8f4"/></g><g><path d="m26.9873 37.707c-.041 0-.082-.001-.123-.0034l-9.5928-.5806c-1.1025-.0669-1.9424-1.0146-1.875-2.1172.0674-1.103 1.0264-1.9336 2.1172-1.876l9.5928.5806c1.1025.0669 1.9424 1.0146 1.875 2.1172-.0645 1.0616-.9454 1.8794-1.9942 1.8794z" fill="#99b8f4"/></g></g><g><g><path d="m71.8926 73.8931c-.5117 0-1.0234-.1953-1.4141-.5859l-7.2383-7.2388c-.7812-.7808-.7812-2.0474 0-2.8281.7812-.7812 2.0469-.7812 2.8281 0l7.2383 7.2388c.7812.7808.7812 2.0474 0 2.8281-.3906.3906-.9023.5859-1.414.5859z" fill="#99b8f4"/></g><g><path d="m78.6094 62.8735c-.041 0-.082-.001-.123-.0034l-9.5928-.5806c-1.1025-.0669-1.9424-1.0146-1.875-2.1172.0674-1.103 1.0293-1.9429 2.1172-1.876l9.5928.5806c1.1025.0669 1.9424 1.0146 1.875 2.1172-.0645 1.0616-.9454 1.8794-1.9942 1.8794z" fill="#99b8f4"/></g><g><path d="m60.8711 80.6079c-1.0498 0-1.9307-.8179-1.9941-1.8794l-.5801-9.5928c-.0674-1.1025.7725-2.0503 1.875-2.1172 1.0879-.0747 2.0508.7729 2.1172 1.876l.5801 9.5928c.0674 1.1025-.7725 2.0503-1.875 2.1172-.0411.0024-.0821.0034-.1231.0034z" fill="#99b8f4"/></g></g></svg>